<?xml version="1.0"?>
<svg xmlns="http://www.w3.org/2000/svg" xmlns:xlink="http://www.w3.org/1999/xlink" xmlns:svgjs="http://svgjs.com/svgjs" version="1.1" width="512" height="512" x="0" y="0" viewBox="0 0 24 24" style="enable-background:new 0 0 512 512" xml:space="preserve" class=""><g><path xmlns="http://www.w3.org/2000/svg" d="m22.5 10h-3c-.276 0-.5-.224-.5-.5v-9c0-.276.224-.5.5-.5h3c.276 0 .5.224.5.5v9c0 .276-.224.5-.5.5zm-2.5-1h2v-8h-2z" fill="#ffffff" data-original="#000000" style="" class=""/><path xmlns="http://www.w3.org/2000/svg" d="m16.5 10h-2.02c-.276 0-.5-.224-.5-.5s.224-.5.5-.5h1.52v-4h-2v1.55c0 .276-.224.5-.5.5s-.5-.224-.5-.5v-2.05c0-.276.224-.5.5-.5h3c.276 0 .5.224.5.5v5c0 .276-.224.5-.5.5z" fill="#ffffff" data-original="#000000" style="" class=""/><path xmlns="http://www.w3.org/2000/svg" d="m23.5 10h-9.02c-.276 0-.5-.224-.5-.5s.224-.5.5-.5h9.02c.276 0 .5.224.5.5s-.224.5-.5.5z" fill="#ffffff" data-original="#000000" style="" class=""/><path xmlns="http://www.w3.org/2000/svg" d="m8 14c-2.206 0-4-1.794-4-4s1.794-4 4-4 4 1.794 4 4-1.794 4-4 4zm0-7c-1.654 0-3 1.346-3 3s1.346 3 3 3 3-1.346 3-3-1.346-3-3-3z" fill="#ffffff" data-original="#000000" style="" class=""/><path xmlns="http://www.w3.org/2000/svg" d="m15.5 24c-.276 0-.5-.224-.5-.5v-3c0-1.93-1.57-3.5-3.5-3.5h-7c-1.93 0-3.5 1.57-3.5 3.5v3c0 .276-.224.5-.5.5s-.5-.224-.5-.5v-3c0-2.481 2.019-4.5 4.5-4.5h7c2.481 0 4.5 2.019 4.5 4.5v3c0 .276-.224.5-.5.5z" fill="#ffffff" data-original="#000000" style="" class=""/></g></svg>
